<?xml version="1.0" encoding="UTF-8" standalone="no"?>
<!DOCTYPE svg PUBLIC "-//W3C//DTD SVG 1.1//EN"
 "http://www.w3.org/Graphics/SVG/1.1/DTD/svg11.dtd">
<!-- Generated by graphviz version 2.43.0 (0)
 -->
<!-- Title: %3 Pages: 1 -->
<svg width="1462pt" height="702pt"
 viewBox="0.00 0.00 1462.00 702.00" xmlns="http://www.w3.org/2000/svg" xmlns:xlink="http://www.w3.org/1999/xlink">
<g id="graph0" class="graph" transform="scale(1 1) rotate(0) translate(4 698)">
<title>%3</title>
<polygon fill="transparent" stroke="transparent" points="-4,4 -4,-698 1458,-698 1458,4 -4,4"/>
<!-- node0 -->
<g id="node1" class="node">
<title>node0</title>
<polygon fill="cornflowerblue" stroke="black" points="138,-657.5 138,-693.5 346,-693.5 346,-657.5 138,-657.5"/>
<text text-anchor="middle" x="188.5" y="-671.8" font-family="Times,serif" font-size="14.00">Type: DEFS</text>
<polyline fill="none" stroke="black" points="239,-657.5 239,-693.5 "/>
<text text-anchor="middle" x="292.5" y="-671.8" font-family="Times,serif" font-size="14.00">Value: NULL</text>
</g>
<!-- node1 -->
<g id="node2" class="node">
<title>node1</title>
<polygon fill="cornflowerblue" stroke="black" points="49.5,-584.5 49.5,-620.5 224.5,-620.5 224.5,-584.5 49.5,-584.5"/>
<text text-anchor="middle" x="100" y="-598.8" font-family="Times,serif" font-size="14.00">Type: NVAR</text>
<polyline fill="none" stroke="black" points="150.5,-584.5 150.5,-620.5 "/>
<text text-anchor="middle" x="187.5" y="-598.8" font-family="Times,serif" font-size="14.00">Value: g</text>
</g>
<!-- node0&#45;&gt;node1 -->
<g id="edge1" class="edge">
<title>node0&#45;&gt;node1</title>
<path fill="none" stroke="red" d="M216.85,-657.49C203.05,-648.17 185.76,-636.47 170.8,-626.36"/>
<polygon fill="red" stroke="red" points="172.55,-623.32 162.31,-620.61 168.63,-629.11 172.55,-623.32"/>
</g>
<!-- node5 -->
<g id="node4" class="node">
<title>node5</title>
<polygon fill="cornflowerblue" stroke="black" points="272,-584.5 272,-620.5 480,-620.5 480,-584.5 272,-584.5"/>
<text text-anchor="middle" x="322.5" y="-598.8" font-family="Times,serif" font-size="14.00">Type: DEFS</text>
<polyline fill="none" stroke="black" points="373,-584.5 373,-620.5 "/>
<text text-anchor="middle" x="426.5" y="-598.8" font-family="Times,serif" font-size="14.00">Value: NULL</text>
</g>
<!-- node0&#45;&gt;node5 -->
<g id="edge3" class="edge">
<title>node0&#45;&gt;node5</title>
<path fill="none" stroke="green" d="M274.1,-657.49C292.28,-647.86 315.22,-635.71 334.72,-625.37"/>
<polygon fill="green" stroke="green" points="336.5,-628.39 343.7,-620.61 333.23,-622.2 336.5,-628.39"/>
</g>
<!-- node2 -->
<g id="node3" class="node">
<title>node2</title>
<polygon fill="springGreen" stroke="black" points="0,-511.5 0,-547.5 214,-547.5 214,-511.5 0,-511.5"/>
<text text-anchor="middle" x="56.5" y="-525.8" font-family="Times,serif" font-size="14.00">Type: CONST</text>
<polyline fill="none" stroke="black" points="113,-511.5 113,-547.5 "/>
<text text-anchor="middle" x="163.5" y="-525.8" font-family="Times,serif" font-size="14.00">Value: 1000</text>
</g>
<!-- node1&#45;&gt;node2 -->
<g id="edge2" class="edge">
<title>node1&#45;&gt;node2</title>
<path fill="none" stroke="green" d="M129.74,-584.31C126.27,-576.12 122.05,-566.12 118.19,-556.98"/>
<polygon fill="green" stroke="green" points="121.31,-555.38 114.2,-547.53 114.86,-558.1 121.31,-555.38"/>
</g>
<!-- node6 -->
<g id="node5" class="node">
<title>node6</title>
<polygon fill="cornflowerblue" stroke="black" points="231.5,-511.5 231.5,-547.5 520.5,-547.5 520.5,-511.5 231.5,-511.5"/>
<text text-anchor="middle" x="284.5" y="-525.8" font-family="Times,serif" font-size="14.00">Type: NFUN</text>
<polyline fill="none" stroke="black" points="337.5,-511.5 337.5,-547.5 "/>
<text text-anchor="middle" x="429" y="-525.8" font-family="Times,serif" font-size="14.00">Value: GetNextNumber</text>
</g>
<!-- node5&#45;&gt;node6 -->
<g id="edge4" class="edge">
<title>node5&#45;&gt;node6</title>
<path fill="none" stroke="red" d="M376,-584.31C376,-576.29 376,-566.55 376,-557.57"/>
<polygon fill="red" stroke="red" points="379.5,-557.53 376,-547.53 372.5,-557.53 379.5,-557.53"/>
</g>
<!-- node20 -->
<g id="node12" class="node">
<title>node20</title>
<polygon fill="cornflowerblue" stroke="black" points="539,-511.5 539,-547.5 747,-547.5 747,-511.5 539,-511.5"/>
<text text-anchor="middle" x="589.5" y="-525.8" font-family="Times,serif" font-size="14.00">Type: DEFS</text>
<polyline fill="none" stroke="black" points="640,-511.5 640,-547.5 "/>
<text text-anchor="middle" x="693.5" y="-525.8" font-family="Times,serif" font-size="14.00">Value: NULL</text>
</g>
<!-- node5&#45;&gt;node20 -->
<g id="edge11" class="edge">
<title>node5&#45;&gt;node20</title>
<path fill="none" stroke="green" d="M439.95,-584.49C478.72,-574.18 528.34,-560.99 568.83,-550.22"/>
<polygon fill="green" stroke="green" points="569.88,-553.57 578.64,-547.61 568.08,-546.8 569.88,-553.57"/>
</g>
<!-- node7 -->
<g id="node6" class="node">
<title>node7</title>
<polygon fill="springGreen" stroke="black" points="94.5,-438.5 94.5,-474.5 259.5,-474.5 259.5,-438.5 94.5,-438.5"/>
<text text-anchor="middle" x="140.5" y="-452.8" font-family="Times,serif" font-size="14.00">Type: ARG</text>
<polyline fill="none" stroke="black" points="186.5,-438.5 186.5,-474.5 "/>
<text text-anchor="middle" x="223" y="-452.8" font-family="Times,serif" font-size="14.00">Value: a</text>
</g>
<!-- node6&#45;&gt;node7 -->
<g id="edge5" class="edge">
<title>node6&#45;&gt;node7</title>
<path fill="none" stroke="red" d="M328.33,-511.49C300.11,-501.42 264.17,-488.6 234.4,-477.98"/>
<polygon fill="red" stroke="red" points="235.56,-474.68 224.97,-474.61 233.21,-481.27 235.56,-474.68"/>
</g>
<!-- node9 -->
<g id="node7" class="node">
<title>node9</title>
<polygon fill="cornflowerblue" stroke="black" points="277.5,-438.5 277.5,-474.5 476.5,-474.5 476.5,-438.5 277.5,-438.5"/>
<text text-anchor="middle" x="323.5" y="-452.8" font-family="Times,serif" font-size="14.00">Type: SEQ</text>
<polyline fill="none" stroke="black" points="369.5,-438.5 369.5,-474.5 "/>
<text text-anchor="middle" x="423" y="-452.8" font-family="Times,serif" font-size="14.00">Value: NULL</text>
</g>
<!-- node6&#45;&gt;node9 -->
<g id="edge6" class="edge">
<title>node6&#45;&gt;node9</title>
<path fill="none" stroke="green" d="M376.24,-511.31C376.36,-503.29 376.49,-493.55 376.62,-484.57"/>
<polygon fill="green" stroke="green" points="380.12,-484.58 376.76,-474.53 373.12,-484.48 380.12,-484.58"/>
</g>
<!-- node10 -->
<g id="node8" class="node">
<title>node10</title>
<polygon fill="cornflowerblue" stroke="black" points="278.5,-365.5 278.5,-401.5 475.5,-401.5 475.5,-365.5 278.5,-365.5"/>
<text text-anchor="middle" x="323.5" y="-379.8" font-family="Times,serif" font-size="14.00">Type: RET</text>
<polyline fill="none" stroke="black" points="368.5,-365.5 368.5,-401.5 "/>
<text text-anchor="middle" x="422" y="-379.8" font-family="Times,serif" font-size="14.00">Value: NULL</text>
</g>
<!-- node9&#45;&gt;node10 -->
<g id="edge7" class="edge">
<title>node9&#45;&gt;node10</title>
<path fill="none" stroke="red" d="M377,-438.31C377,-430.29 377,-420.55 377,-411.57"/>
<polygon fill="red" stroke="red" points="380.5,-411.53 377,-401.53 373.5,-411.53 380.5,-411.53"/>
</g>
<!-- node11 -->
<g id="node9" class="node">
<title>node11</title>
<polygon fill="cornflowerblue" stroke="black" points="288,-292.5 288,-328.5 466,-328.5 466,-292.5 288,-292.5"/>
<text text-anchor="middle" x="328.5" y="-306.8" font-family="Times,serif" font-size="14.00">Type: OP</text>
<polyline fill="none" stroke="black" points="369,-292.5 369,-328.5 "/>
<text text-anchor="middle" x="417.5" y="-306.8" font-family="Times,serif" font-size="14.00">Value: ADD</text>
</g>
<!-- node10&#45;&gt;node11 -->
<g id="edge8" class="edge">
<title>node10&#45;&gt;node11</title>
<path fill="none" stroke="green" d="M377,-365.31C377,-357.29 377,-347.55 377,-338.57"/>
<polygon fill="green" stroke="green" points="380.5,-338.53 377,-328.53 373.5,-338.53 380.5,-338.53"/>
</g>
<!-- node12 -->
<g id="node10" class="node">
<title>node12</title>
<polygon fill="springGreen" stroke="black" points="53,-219.5 53,-255.5 215,-255.5 215,-219.5 53,-219.5"/>
<text text-anchor="middle" x="97.5" y="-233.8" font-family="Times,serif" font-size="14.00">Type: VAR</text>
<polyline fill="none" stroke="black" points="142,-219.5 142,-255.5 "/>
<text text-anchor="middle" x="178.5" y="-233.8" font-family="Times,serif" font-size="14.00">Value: a</text>
</g>
<!-- node11&#45;&gt;node12 -->
<g id="edge9" class="edge">
<title>node11&#45;&gt;node12</title>
<path fill="none" stroke="red" d="M318.8,-292.49C283.74,-282.25 238.92,-269.16 202.21,-258.43"/>
<polygon fill="red" stroke="red" points="203.15,-255.06 192.57,-255.61 201.19,-261.78 203.15,-255.06"/>
</g>
<!-- node14 -->
<g id="node11" class="node">
<title>node14</title>
<polygon fill="springGreen" stroke="black" points="233.5,-219.5 233.5,-255.5 528.5,-255.5 528.5,-219.5 233.5,-219.5"/>
<text text-anchor="middle" x="278" y="-233.8" font-family="Times,serif" font-size="14.00">Type: VAR</text>
<polyline fill="none" stroke="black" points="322.5,-219.5 322.5,-255.5 "/>
<text text-anchor="middle" x="425.5" y="-233.8" font-family="Times,serif" font-size="14.00">Value: GLOBAL_VARIABLE</text>
</g>
<!-- node11&#45;&gt;node14 -->
<g id="edge10" class="edge">
<title>node11&#45;&gt;node14</title>
<path fill="none" stroke="green" d="M377.97,-292.31C378.42,-284.29 378.97,-274.55 379.47,-265.57"/>
<polygon fill="green" stroke="green" points="382.97,-265.71 380.04,-255.53 375.98,-265.32 382.97,-265.71"/>
</g>
<!-- node21 -->
<g id="node13" class="node">
<title>node21</title>
<polygon fill="cornflowerblue" stroke="black" points="540,-438.5 540,-474.5 746,-474.5 746,-438.5 540,-438.5"/>
<text text-anchor="middle" x="593" y="-452.8" font-family="Times,serif" font-size="14.00">Type: NFUN</text>
<polyline fill="none" stroke="black" points="646,-438.5 646,-474.5 "/>
<text text-anchor="middle" x="696" y="-452.8" font-family="Times,serif" font-size="14.00">Value: main</text>
</g>
<!-- node20&#45;&gt;node21 -->
<g id="edge12" class="edge">
<title>node20&#45;&gt;node21</title>
<path fill="none" stroke="red" d="M643,-511.31C643,-503.29 643,-493.55 643,-484.57"/>
<polygon fill="red" stroke="red" points="646.5,-484.53 643,-474.53 639.5,-484.53 646.5,-484.53"/>
</g>
<!-- node22 -->
<g id="node14" class="node">
<title>node22</title>
<polygon fill="cornflowerblue" stroke="black" points="543.5,-365.5 543.5,-401.5 742.5,-401.5 742.5,-365.5 543.5,-365.5"/>
<text text-anchor="middle" x="589.5" y="-379.8" font-family="Times,serif" font-size="14.00">Type: SEQ</text>
<polyline fill="none" stroke="black" points="635.5,-365.5 635.5,-401.5 "/>
<text text-anchor="middle" x="689" y="-379.8" font-family="Times,serif" font-size="14.00">Value: NULL</text>
</g>
<!-- node21&#45;&gt;node22 -->
<g id="edge13" class="edge">
<title>node21&#45;&gt;node22</title>
<path fill="none" stroke="green" d="M643,-438.31C643,-430.29 643,-420.55 643,-411.57"/>
<polygon fill="green" stroke="green" points="646.5,-411.53 643,-401.53 639.5,-411.53 646.5,-411.53"/>
</g>
<!-- node23 -->
<g id="node15" class="node">
<title>node23</title>
<polygon fill="cornflowerblue" stroke="black" points="555,-292.5 555,-328.5 729,-328.5 729,-292.5 555,-292.5"/>
<text text-anchor="middle" x="605.5" y="-306.8" font-family="Times,serif" font-size="14.00">Type: NVAR</text>
<polyline fill="none" stroke="black" points="656,-292.5 656,-328.5 "/>
<text text-anchor="middle" x="692.5" y="-306.8" font-family="Times,serif" font-size="14.00">Value: a</text>
</g>
<!-- node22&#45;&gt;node23 -->
<g id="edge14" class="edge">
<title>node22&#45;&gt;node23</title>
<path fill="none" stroke="red" d="M642.76,-365.31C642.64,-357.29 642.51,-347.55 642.38,-338.57"/>
<polygon fill="red" stroke="red" points="645.88,-338.48 642.24,-328.53 638.88,-338.58 645.88,-338.48"/>
</g>
<!-- node27 -->
<g id="node17" class="node">
<title>node27</title>
<polygon fill="cornflowerblue" stroke="black" points="794.5,-292.5 794.5,-328.5 993.5,-328.5 993.5,-292.5 794.5,-292.5"/>
<text text-anchor="middle" x="840.5" y="-306.8" font-family="Times,serif" font-size="14.00">Type: SEQ</text>
<polyline fill="none" stroke="black" points="886.5,-292.5 886.5,-328.5 "/>
<text text-anchor="middle" x="940" y="-306.8" font-family="Times,serif" font-size="14.00">Value: NULL</text>
</g>
<!-- node22&#45;&gt;node27 -->
<g id="edge16" class="edge">
<title>node22&#45;&gt;node27</title>
<path fill="none" stroke="green" d="M703.12,-365.49C739.33,-355.25 785.62,-342.16 823.55,-331.43"/>
<polygon fill="green" stroke="green" points="824.83,-334.7 833.5,-328.61 822.92,-327.97 824.83,-334.7"/>
</g>
<!-- node24 -->
<g id="node16" class="node">
<title>node24</title>
<polygon fill="springGreen" stroke="black" points="548.5,-219.5 548.5,-255.5 735.5,-255.5 735.5,-219.5 548.5,-219.5"/>
<text text-anchor="middle" x="605" y="-233.8" font-family="Times,serif" font-size="14.00">Type: CONST</text>
<polyline fill="none" stroke="black" points="661.5,-219.5 661.5,-255.5 "/>
<text text-anchor="middle" x="698.5" y="-233.8" font-family="Times,serif" font-size="14.00">Value: 0</text>
</g>
<!-- node23&#45;&gt;node24 -->
<g id="edge15" class="edge">
<title>node23&#45;&gt;node24</title>
<path fill="none" stroke="green" d="M642,-292.31C642,-284.29 642,-274.55 642,-265.57"/>
<polygon fill="green" stroke="green" points="645.5,-265.53 642,-255.53 638.5,-265.53 645.5,-265.53"/>
</g>
<!-- node28 -->
<g id="node18" class="node">
<title>node28</title>
<polygon fill="cornflowerblue" stroke="black" points="753.5,-219.5 753.5,-255.5 1034.5,-255.5 1034.5,-219.5 753.5,-219.5"/>
<text text-anchor="middle" x="802.5" y="-233.8" font-family="Times,serif" font-size="14.00">Type: CALL</text>
<polyline fill="none" stroke="black" points="851.5,-219.5 851.5,-255.5 "/>
<text text-anchor="middle" x="943" y="-233.8" font-family="Times,serif" font-size="14.00">Value: GetNextNumber</text>
</g>
<!-- node27&#45;&gt;node28 -->
<g id="edge17" class="edge">
<title>node27&#45;&gt;node28</title>
<path fill="none" stroke="red" d="M894,-292.31C894,-284.29 894,-274.55 894,-265.57"/>
<polygon fill="red" stroke="red" points="897.5,-265.53 894,-255.53 890.5,-265.53 897.5,-265.53"/>
</g>
<!-- node34 -->
<g id="node21" class="node">
<title>node34</title>
<polygon fill="cornflowerblue" stroke="black" points="1052.5,-219.5 1052.5,-255.5 1251.5,-255.5 1251.5,-219.5 1052.5,-219.5"/>
<text text-anchor="middle" x="1098.5" y="-233.8" font-family="Times,serif" font-size="14.00">Type: SEQ</text>
<polyline fill="none" stroke="black" points="1144.5,-219.5 1144.5,-255.5 "/>
<text text-anchor="middle" x="1198" y="-233.8" font-family="Times,serif" font-size="14.00">Value: NULL</text>
</g>
<!-- node27&#45;&gt;node34 -->
<g id="edge20" class="edge">
<title>node27&#45;&gt;node34</title>
<path fill="none" stroke="green" d="M955.8,-292.49C993.18,-282.21 1041,-269.05 1080.08,-258.29"/>
<polygon fill="green" stroke="green" points="1081.1,-261.64 1089.81,-255.61 1079.24,-254.89 1081.1,-261.64"/>
</g>
<!-- node29 -->
<g id="node19" class="node">
<title>node29</title>
<polygon fill="cornflowerblue" stroke="black" points="796,-146.5 796,-182.5 992,-182.5 992,-146.5 796,-146.5"/>
<text text-anchor="middle" x="840.5" y="-160.8" font-family="Times,serif" font-size="14.00">Type: PAR</text>
<polyline fill="none" stroke="black" points="885,-146.5 885,-182.5 "/>
<text text-anchor="middle" x="938.5" y="-160.8" font-family="Times,serif" font-size="14.00">Value: NULL</text>
</g>
<!-- node28&#45;&gt;node29 -->
<g id="edge18" class="edge">
<title>node28&#45;&gt;node29</title>
<path fill="none" stroke="green" d="M894,-219.31C894,-211.29 894,-201.55 894,-192.57"/>
<polygon fill="green" stroke="green" points="897.5,-192.53 894,-182.53 890.5,-192.53 897.5,-192.53"/>
</g>
<!-- node30 -->
<g id="node20" class="node">
<title>node30</title>
<polygon fill="springGreen" stroke="black" points="813,-73.5 813,-109.5 975,-109.5 975,-73.5 813,-73.5"/>
<text text-anchor="middle" x="857.5" y="-87.8" font-family="Times,serif" font-size="14.00">Type: VAR</text>
<polyline fill="none" stroke="black" points="902,-73.5 902,-109.5 "/>
<text text-anchor="middle" x="938.5" y="-87.8" font-family="Times,serif" font-size="14.00">Value: a</text>
</g>
<!-- node29&#45;&gt;node30 -->
<g id="edge19" class="edge">
<title>node29&#45;&gt;node30</title>
<path fill="none" stroke="red" d="M894,-146.31C894,-138.29 894,-128.55 894,-119.57"/>
<polygon fill="red" stroke="red" points="897.5,-119.53 894,-109.53 890.5,-119.53 897.5,-119.53"/>
</g>
<!-- node35 -->
<g id="node22" class="node">
<title>node35</title>
<polygon fill="cornflowerblue" stroke="black" points="1031,-146.5 1031,-182.5 1229,-182.5 1229,-146.5 1031,-146.5"/>
<text text-anchor="middle" x="1080" y="-160.8" font-family="Times,serif" font-size="14.00">Type: CALL</text>
<polyline fill="none" stroke="black" points="1129,-146.5 1129,-182.5 "/>
<text text-anchor="middle" x="1179" y="-160.8" font-family="Times,serif" font-size="14.00">Value: print</text>
</g>
<!-- node34&#45;&gt;node35 -->
<g id="edge21" class="edge">
<title>node34&#45;&gt;node35</title>
<path fill="none" stroke="red" d="M1146.67,-219.31C1144.16,-211.2 1141.1,-201.34 1138.3,-192.28"/>
<polygon fill="red" stroke="red" points="1141.58,-191.04 1135.28,-182.53 1134.89,-193.12 1141.58,-191.04"/>
</g>
<!-- node41 -->
<g id="node25" class="node">
<title>node41</title>
<polygon fill="cornflowerblue" stroke="black" points="1247.5,-146.5 1247.5,-182.5 1446.5,-182.5 1446.5,-146.5 1247.5,-146.5"/>
<text text-anchor="middle" x="1293.5" y="-160.8" font-family="Times,serif" font-size="14.00">Type: SEQ</text>
<polyline fill="none" stroke="black" points="1339.5,-146.5 1339.5,-182.5 "/>
<text text-anchor="middle" x="1393" y="-160.8" font-family="Times,serif" font-size="14.00">Value: NULL</text>
</g>
<!-- node34&#45;&gt;node41 -->
<g id="edge24" class="edge">
<title>node34&#45;&gt;node41</title>
<path fill="none" stroke="green" d="M1198.71,-219.49C1226.24,-209.47 1261.28,-196.71 1290.38,-186.12"/>
<polygon fill="green" stroke="green" points="1291.8,-189.32 1300,-182.61 1289.4,-182.75 1291.8,-189.32"/>
</g>
<!-- node36 -->
<g id="node23" class="node">
<title>node36</title>
<polygon fill="cornflowerblue" stroke="black" points="1032,-73.5 1032,-109.5 1228,-109.5 1228,-73.5 1032,-73.5"/>
<text text-anchor="middle" x="1076.5" y="-87.8" font-family="Times,serif" font-size="14.00">Type: PAR</text>
<polyline fill="none" stroke="black" points="1121,-73.5 1121,-109.5 "/>
<text text-anchor="middle" x="1174.5" y="-87.8" font-family="Times,serif" font-size="14.00">Value: NULL</text>
</g>
<!-- node35&#45;&gt;node36 -->
<g id="edge22" class="edge">
<title>node35&#45;&gt;node36</title>
<path fill="none" stroke="green" d="M1130,-146.31C1130,-138.29 1130,-128.55 1130,-119.57"/>
<polygon fill="green" stroke="green" points="1133.5,-119.53 1130,-109.53 1126.5,-119.53 1133.5,-119.53"/>
</g>
<!-- node37 -->
<g id="node24" class="node">
<title>node37</title>
<polygon fill="springGreen" stroke="black" points="1049,-0.5 1049,-36.5 1211,-36.5 1211,-0.5 1049,-0.5"/>
<text text-anchor="middle" x="1093.5" y="-14.8" font-family="Times,serif" font-size="14.00">Type: VAR</text>
<polyline fill="none" stroke="black" points="1138,-0.5 1138,-36.5 "/>
<text text-anchor="middle" x="1174.5" y="-14.8" font-family="Times,serif" font-size="14.00">Value: a</text>
</g>
<!-- node36&#45;&gt;node37 -->
<g id="edge23" class="edge">
<title>node36&#45;&gt;node37</title>
<path fill="none" stroke="red" d="M1130,-73.31C1130,-65.29 1130,-55.55 1130,-46.57"/>
<polygon fill="red" stroke="red" points="1133.5,-46.53 1130,-36.53 1126.5,-46.53 1133.5,-46.53"/>
</g>
<!-- node42 -->
<g id="node26" class="node">
<title>node42</title>
<polygon fill="cornflowerblue" stroke="black" points="1248.5,-73.5 1248.5,-109.5 1445.5,-109.5 1445.5,-73.5 1248.5,-73.5"/>
<text text-anchor="middle" x="1293.5" y="-87.8" font-family="Times,serif" font-size="14.00">Type: RET</text>
<polyline fill="none" stroke="black" points="1338.5,-73.5 1338.5,-109.5 "/>
<text text-anchor="middle" x="1392" y="-87.8" font-family="Times,serif" font-size="14.00">Value: NULL</text>
</g>
<!-- node41&#45;&gt;node42 -->
<g id="edge25" class="edge">
<title>node41&#45;&gt;node42</title>
<path fill="none" stroke="red" d="M1347,-146.31C1347,-138.29 1347,-128.55 1347,-119.57"/>
<polygon fill="red" stroke="red" points="1350.5,-119.53 1347,-109.53 1343.5,-119.53 1350.5,-119.53"/>
</g>
<!-- node43 -->
<g id="node27" class="node">
<title>node43</title>
<polygon fill="springGreen" stroke="black" points="1240,-0.5 1240,-36.5 1454,-36.5 1454,-0.5 1240,-0.5"/>
<text text-anchor="middle" x="1296.5" y="-14.8" font-family="Times,serif" font-size="14.00">Type: CONST</text>
<polyline fill="none" stroke="black" points="1353,-0.5 1353,-36.5 "/>
<text text-anchor="middle" x="1403.5" y="-14.8" font-family="Times,serif" font-size="14.00">Value: 1000</text>
</g>
<!-- node42&#45;&gt;node43 -->
<g id="edge26" class="edge">
<title>node42&#45;&gt;node43</title>
<path fill="none" stroke="green" d="M1347,-73.31C1347,-65.29 1347,-55.55 1347,-46.57"/>
<polygon fill="green" stroke="green" points="1350.5,-46.53 1347,-36.53 1343.5,-46.53 1350.5,-46.53"/>
</g>
</g>
</svg>
