<?xml version="1.0" encoding="UTF-8" standalone="no"?>
<!DOCTYPE svg PUBLIC "-//W3C//DTD SVG 1.1//EN"
 "http://www.w3.org/Graphics/SVG/1.1/DTD/svg11.dtd">
<!-- Generated by graphviz version 2.43.0 (0)
 -->
<!-- Title: %3 Pages: 1 -->
<svg width="1492pt" height="702pt"
 viewBox="0.00 0.00 1492.00 702.00" xmlns="http://www.w3.org/2000/svg" xmlns:xlink="http://www.w3.org/1999/xlink">
<g id="graph0" class="graph" transform="scale(1 1) rotate(0) translate(4 698)">
<title>%3</title>
<polygon fill="transparent" stroke="transparent" points="-4,4 -4,-698 1488,-698 1488,4 -4,4"/>
<!-- node0 -->
<g id="node1" class="node">
<title>node0</title>
<polygon fill="cornflowerblue" stroke="black" points="141,-657.5 141,-693.5 349,-693.5 349,-657.5 141,-657.5"/>
<text text-anchor="middle" x="191.5" y="-671.8" font-family="Times,serif" font-size="14.00">Type: DEFS</text>
<polyline fill="none" stroke="black" points="242,-657.5 242,-693.5 "/>
<text text-anchor="middle" x="295.5" y="-671.8" font-family="Times,serif" font-size="14.00">Value: NULL</text>
</g>
<!-- node1 -->
<g id="node2" class="node">
<title>node1</title>
<polygon fill="cornflowerblue" stroke="black" points="52.5,-584.5 52.5,-620.5 227.5,-620.5 227.5,-584.5 52.5,-584.5"/>
<text text-anchor="middle" x="103" y="-598.8" font-family="Times,serif" font-size="14.00">Type: NVAR</text>
<polyline fill="none" stroke="black" points="153.5,-584.5 153.5,-620.5 "/>
<text text-anchor="middle" x="190.5" y="-598.8" font-family="Times,serif" font-size="14.00">Value: g</text>
</g>
<!-- node0&#45;&gt;node1 -->
<g id="edge1" class="edge">
<title>node0&#45;&gt;node1</title>
<path fill="none" stroke="red" d="M219.85,-657.49C206.05,-648.17 188.76,-636.47 173.8,-626.36"/>
<polygon fill="red" stroke="red" points="175.55,-623.32 165.31,-620.61 171.63,-629.11 175.55,-623.32"/>
</g>
<!-- node5 -->
<g id="node4" class="node">
<title>node5</title>
<polygon fill="cornflowerblue" stroke="black" points="277,-584.5 277,-620.5 485,-620.5 485,-584.5 277,-584.5"/>
<text text-anchor="middle" x="327.5" y="-598.8" font-family="Times,serif" font-size="14.00">Type: DEFS</text>
<polyline fill="none" stroke="black" points="378,-584.5 378,-620.5 "/>
<text text-anchor="middle" x="431.5" y="-598.8" font-family="Times,serif" font-size="14.00">Value: NULL</text>
</g>
<!-- node0&#45;&gt;node5 -->
<g id="edge3" class="edge">
<title>node0&#45;&gt;node5</title>
<path fill="none" stroke="green" d="M277.58,-657.49C296.03,-647.86 319.31,-635.71 339.11,-625.37"/>
<polygon fill="green" stroke="green" points="340.97,-628.34 348.22,-620.61 337.73,-622.14 340.97,-628.34"/>
</g>
<!-- node2 -->
<g id="node3" class="node">
<title>node2</title>
<polygon fill="springGreen" stroke="black" points="0,-511.5 0,-547.5 218,-547.5 218,-511.5 0,-511.5"/>
<text text-anchor="middle" x="56.5" y="-525.8" font-family="Times,serif" font-size="14.00">Type: CONST</text>
<polyline fill="none" stroke="black" points="113,-511.5 113,-547.5 "/>
<text text-anchor="middle" x="165.5" y="-525.8" font-family="Times,serif" font-size="14.00">Value: 1.000</text>
</g>
<!-- node1&#45;&gt;node2 -->
<g id="edge2" class="edge">
<title>node1&#45;&gt;node2</title>
<path fill="none" stroke="green" d="M132.5,-584.31C128.92,-576.12 124.55,-566.12 120.56,-556.98"/>
<polygon fill="green" stroke="green" points="123.64,-555.29 116.44,-547.53 117.23,-558.09 123.64,-555.29"/>
</g>
<!-- node6 -->
<g id="node5" class="node">
<title>node6</title>
<polygon fill="cornflowerblue" stroke="black" points="236.5,-511.5 236.5,-547.5 525.5,-547.5 525.5,-511.5 236.5,-511.5"/>
<text text-anchor="middle" x="289.5" y="-525.8" font-family="Times,serif" font-size="14.00">Type: NFUN</text>
<polyline fill="none" stroke="black" points="342.5,-511.5 342.5,-547.5 "/>
<text text-anchor="middle" x="434" y="-525.8" font-family="Times,serif" font-size="14.00">Value: GetNextNumber</text>
</g>
<!-- node5&#45;&gt;node6 -->
<g id="edge4" class="edge">
<title>node5&#45;&gt;node6</title>
<path fill="none" stroke="red" d="M381,-584.31C381,-576.29 381,-566.55 381,-557.57"/>
<polygon fill="red" stroke="red" points="384.5,-557.53 381,-547.53 377.5,-557.53 384.5,-557.53"/>
</g>
<!-- node20 -->
<g id="node12" class="node">
<title>node20</title>
<polygon fill="cornflowerblue" stroke="black" points="548,-511.5 548,-547.5 756,-547.5 756,-511.5 548,-511.5"/>
<text text-anchor="middle" x="598.5" y="-525.8" font-family="Times,serif" font-size="14.00">Type: DEFS</text>
<polyline fill="none" stroke="black" points="649,-511.5 649,-547.5 "/>
<text text-anchor="middle" x="702.5" y="-525.8" font-family="Times,serif" font-size="14.00">Value: NULL</text>
</g>
<!-- node5&#45;&gt;node20 -->
<g id="edge11" class="edge">
<title>node5&#45;&gt;node20</title>
<path fill="none" stroke="green" d="M445.91,-584.49C485.34,-574.16 535.84,-560.93 576.98,-550.16"/>
<polygon fill="green" stroke="green" points="577.89,-553.53 586.68,-547.61 576.12,-546.76 577.89,-553.53"/>
</g>
<!-- node7 -->
<g id="node6" class="node">
<title>node7</title>
<polygon fill="springGreen" stroke="black" points="98.5,-438.5 98.5,-474.5 263.5,-474.5 263.5,-438.5 98.5,-438.5"/>
<text text-anchor="middle" x="144.5" y="-452.8" font-family="Times,serif" font-size="14.00">Type: ARG</text>
<polyline fill="none" stroke="black" points="190.5,-438.5 190.5,-474.5 "/>
<text text-anchor="middle" x="227" y="-452.8" font-family="Times,serif" font-size="14.00">Value: a</text>
</g>
<!-- node6&#45;&gt;node7 -->
<g id="edge5" class="edge">
<title>node6&#45;&gt;node7</title>
<path fill="none" stroke="red" d="M333.1,-511.49C304.73,-501.42 268.61,-488.6 238.69,-477.98"/>
<polygon fill="red" stroke="red" points="239.8,-474.66 229.21,-474.61 237.46,-481.26 239.8,-474.66"/>
</g>
<!-- node9 -->
<g id="node7" class="node">
<title>node9</title>
<polygon fill="cornflowerblue" stroke="black" points="281.5,-438.5 281.5,-474.5 480.5,-474.5 480.5,-438.5 281.5,-438.5"/>
<text text-anchor="middle" x="327.5" y="-452.8" font-family="Times,serif" font-size="14.00">Type: SEQ</text>
<polyline fill="none" stroke="black" points="373.5,-438.5 373.5,-474.5 "/>
<text text-anchor="middle" x="427" y="-452.8" font-family="Times,serif" font-size="14.00">Value: NULL</text>
</g>
<!-- node6&#45;&gt;node9 -->
<g id="edge6" class="edge">
<title>node6&#45;&gt;node9</title>
<path fill="none" stroke="green" d="M381,-511.31C381,-503.29 381,-493.55 381,-484.57"/>
<polygon fill="green" stroke="green" points="384.5,-484.53 381,-474.53 377.5,-484.53 384.5,-484.53"/>
</g>
<!-- node10 -->
<g id="node8" class="node">
<title>node10</title>
<polygon fill="cornflowerblue" stroke="black" points="281.5,-365.5 281.5,-401.5 478.5,-401.5 478.5,-365.5 281.5,-365.5"/>
<text text-anchor="middle" x="326.5" y="-379.8" font-family="Times,serif" font-size="14.00">Type: RET</text>
<polyline fill="none" stroke="black" points="371.5,-365.5 371.5,-401.5 "/>
<text text-anchor="middle" x="425" y="-379.8" font-family="Times,serif" font-size="14.00">Value: NULL</text>
</g>
<!-- node9&#45;&gt;node10 -->
<g id="edge7" class="edge">
<title>node9&#45;&gt;node10</title>
<path fill="none" stroke="red" d="M380.76,-438.31C380.64,-430.29 380.51,-420.55 380.38,-411.57"/>
<polygon fill="red" stroke="red" points="383.88,-411.48 380.24,-401.53 376.88,-411.58 383.88,-411.48"/>
</g>
<!-- node11 -->
<g id="node9" class="node">
<title>node11</title>
<polygon fill="cornflowerblue" stroke="black" points="290,-292.5 290,-328.5 468,-328.5 468,-292.5 290,-292.5"/>
<text text-anchor="middle" x="330.5" y="-306.8" font-family="Times,serif" font-size="14.00">Type: OP</text>
<polyline fill="none" stroke="black" points="371,-292.5 371,-328.5 "/>
<text text-anchor="middle" x="419.5" y="-306.8" font-family="Times,serif" font-size="14.00">Value: ADD</text>
</g>
<!-- node10&#45;&gt;node11 -->
<g id="edge8" class="edge">
<title>node10&#45;&gt;node11</title>
<path fill="none" stroke="green" d="M379.76,-365.31C379.64,-357.29 379.51,-347.55 379.38,-338.57"/>
<polygon fill="green" stroke="green" points="382.88,-338.48 379.24,-328.53 375.88,-338.58 382.88,-338.48"/>
</g>
<!-- node12 -->
<g id="node10" class="node">
<title>node12</title>
<polygon fill="springGreen" stroke="black" points="51,-219.5 51,-255.5 213,-255.5 213,-219.5 51,-219.5"/>
<text text-anchor="middle" x="95.5" y="-233.8" font-family="Times,serif" font-size="14.00">Type: VAR</text>
<polyline fill="none" stroke="black" points="140,-219.5 140,-255.5 "/>
<text text-anchor="middle" x="176.5" y="-233.8" font-family="Times,serif" font-size="14.00">Value: a</text>
</g>
<!-- node11&#45;&gt;node12 -->
<g id="edge9" class="edge">
<title>node11&#45;&gt;node12</title>
<path fill="none" stroke="red" d="M319.84,-292.49C284.2,-282.25 238.65,-269.16 201.33,-258.43"/>
<polygon fill="red" stroke="red" points="202.11,-255.01 191.54,-255.61 200.18,-261.74 202.11,-255.01"/>
</g>
<!-- node14 -->
<g id="node11" class="node">
<title>node14</title>
<polygon fill="springGreen" stroke="black" points="231.5,-219.5 231.5,-255.5 526.5,-255.5 526.5,-219.5 231.5,-219.5"/>
<text text-anchor="middle" x="276" y="-233.8" font-family="Times,serif" font-size="14.00">Type: VAR</text>
<polyline fill="none" stroke="black" points="320.5,-219.5 320.5,-255.5 "/>
<text text-anchor="middle" x="423.5" y="-233.8" font-family="Times,serif" font-size="14.00">Value: GLOBAL_VARIABLE</text>
</g>
<!-- node11&#45;&gt;node14 -->
<g id="edge10" class="edge">
<title>node11&#45;&gt;node14</title>
<path fill="none" stroke="green" d="M379,-292.31C379,-284.29 379,-274.55 379,-265.57"/>
<polygon fill="green" stroke="green" points="382.5,-265.53 379,-255.53 375.5,-265.53 382.5,-265.53"/>
</g>
<!-- node21 -->
<g id="node13" class="node">
<title>node21</title>
<polygon fill="cornflowerblue" stroke="black" points="551,-438.5 551,-474.5 757,-474.5 757,-438.5 551,-438.5"/>
<text text-anchor="middle" x="604" y="-452.8" font-family="Times,serif" font-size="14.00">Type: NFUN</text>
<polyline fill="none" stroke="black" points="657,-438.5 657,-474.5 "/>
<text text-anchor="middle" x="707" y="-452.8" font-family="Times,serif" font-size="14.00">Value: main</text>
</g>
<!-- node20&#45;&gt;node21 -->
<g id="edge12" class="edge">
<title>node20&#45;&gt;node21</title>
<path fill="none" stroke="red" d="M652.48,-511.31C652.71,-503.29 652.98,-493.55 653.24,-484.57"/>
<polygon fill="red" stroke="red" points="656.74,-484.62 653.52,-474.53 649.74,-484.43 656.74,-484.62"/>
</g>
<!-- node22 -->
<g id="node14" class="node">
<title>node22</title>
<polygon fill="cornflowerblue" stroke="black" points="554.5,-365.5 554.5,-401.5 753.5,-401.5 753.5,-365.5 554.5,-365.5"/>
<text text-anchor="middle" x="600.5" y="-379.8" font-family="Times,serif" font-size="14.00">Type: SEQ</text>
<polyline fill="none" stroke="black" points="646.5,-365.5 646.5,-401.5 "/>
<text text-anchor="middle" x="700" y="-379.8" font-family="Times,serif" font-size="14.00">Value: NULL</text>
</g>
<!-- node21&#45;&gt;node22 -->
<g id="edge13" class="edge">
<title>node21&#45;&gt;node22</title>
<path fill="none" stroke="green" d="M654,-438.31C654,-430.29 654,-420.55 654,-411.57"/>
<polygon fill="green" stroke="green" points="657.5,-411.53 654,-401.53 650.5,-411.53 657.5,-411.53"/>
</g>
<!-- node23 -->
<g id="node15" class="node">
<title>node23</title>
<polygon fill="cornflowerblue" stroke="black" points="567,-292.5 567,-328.5 741,-328.5 741,-292.5 567,-292.5"/>
<text text-anchor="middle" x="617.5" y="-306.8" font-family="Times,serif" font-size="14.00">Type: NVAR</text>
<polyline fill="none" stroke="black" points="668,-292.5 668,-328.5 "/>
<text text-anchor="middle" x="704.5" y="-306.8" font-family="Times,serif" font-size="14.00">Value: a</text>
</g>
<!-- node22&#45;&gt;node23 -->
<g id="edge14" class="edge">
<title>node22&#45;&gt;node23</title>
<path fill="none" stroke="red" d="M654,-365.31C654,-357.29 654,-347.55 654,-338.57"/>
<polygon fill="red" stroke="red" points="657.5,-338.53 654,-328.53 650.5,-338.53 657.5,-338.53"/>
</g>
<!-- node27 -->
<g id="node17" class="node">
<title>node27</title>
<polygon fill="cornflowerblue" stroke="black" points="822.5,-292.5 822.5,-328.5 1021.5,-328.5 1021.5,-292.5 822.5,-292.5"/>
<text text-anchor="middle" x="868.5" y="-306.8" font-family="Times,serif" font-size="14.00">Type: SEQ</text>
<polyline fill="none" stroke="black" points="914.5,-292.5 914.5,-328.5 "/>
<text text-anchor="middle" x="968" y="-306.8" font-family="Times,serif" font-size="14.00">Value: NULL</text>
</g>
<!-- node22&#45;&gt;node27 -->
<g id="edge16" class="edge">
<title>node22&#45;&gt;node27</title>
<path fill="none" stroke="green" d="M718.19,-365.49C757.1,-355.18 806.91,-341.99 847.55,-331.22"/>
<polygon fill="green" stroke="green" points="848.63,-334.56 857.4,-328.61 846.84,-327.79 848.63,-334.56"/>
</g>
<!-- node24 -->
<g id="node16" class="node">
<title>node24</title>
<polygon fill="springGreen" stroke="black" points="545,-219.5 545,-255.5 763,-255.5 763,-219.5 545,-219.5"/>
<text text-anchor="middle" x="601.5" y="-233.8" font-family="Times,serif" font-size="14.00">Type: CONST</text>
<polyline fill="none" stroke="black" points="658,-219.5 658,-255.5 "/>
<text text-anchor="middle" x="710.5" y="-233.8" font-family="Times,serif" font-size="14.00">Value: 0.000</text>
</g>
<!-- node23&#45;&gt;node24 -->
<g id="edge15" class="edge">
<title>node23&#45;&gt;node24</title>
<path fill="none" stroke="green" d="M654,-292.31C654,-284.29 654,-274.55 654,-265.57"/>
<polygon fill="green" stroke="green" points="657.5,-265.53 654,-255.53 650.5,-265.53 657.5,-265.53"/>
</g>
<!-- node28 -->
<g id="node18" class="node">
<title>node28</title>
<polygon fill="cornflowerblue" stroke="black" points="781.5,-219.5 781.5,-255.5 1062.5,-255.5 1062.5,-219.5 781.5,-219.5"/>
<text text-anchor="middle" x="830.5" y="-233.8" font-family="Times,serif" font-size="14.00">Type: CALL</text>
<polyline fill="none" stroke="black" points="879.5,-219.5 879.5,-255.5 "/>
<text text-anchor="middle" x="971" y="-233.8" font-family="Times,serif" font-size="14.00">Value: GetNextNumber</text>
</g>
<!-- node27&#45;&gt;node28 -->
<g id="edge17" class="edge">
<title>node27&#45;&gt;node28</title>
<path fill="none" stroke="red" d="M922,-292.31C922,-284.29 922,-274.55 922,-265.57"/>
<polygon fill="red" stroke="red" points="925.5,-265.53 922,-255.53 918.5,-265.53 925.5,-265.53"/>
</g>
<!-- node34 -->
<g id="node21" class="node">
<title>node34</title>
<polygon fill="cornflowerblue" stroke="black" points="1080.5,-219.5 1080.5,-255.5 1279.5,-255.5 1279.5,-219.5 1080.5,-219.5"/>
<text text-anchor="middle" x="1126.5" y="-233.8" font-family="Times,serif" font-size="14.00">Type: SEQ</text>
<polyline fill="none" stroke="black" points="1172.5,-219.5 1172.5,-255.5 "/>
<text text-anchor="middle" x="1226" y="-233.8" font-family="Times,serif" font-size="14.00">Value: NULL</text>
</g>
<!-- node27&#45;&gt;node34 -->
<g id="edge20" class="edge">
<title>node27&#45;&gt;node34</title>
<path fill="none" stroke="green" d="M983.8,-292.49C1021.18,-282.21 1069,-269.05 1108.08,-258.29"/>
<polygon fill="green" stroke="green" points="1109.1,-261.64 1117.81,-255.61 1107.24,-254.89 1109.1,-261.64"/>
</g>
<!-- node29 -->
<g id="node19" class="node">
<title>node29</title>
<polygon fill="cornflowerblue" stroke="black" points="824,-146.5 824,-182.5 1020,-182.5 1020,-146.5 824,-146.5"/>
<text text-anchor="middle" x="868.5" y="-160.8" font-family="Times,serif" font-size="14.00">Type: PAR</text>
<polyline fill="none" stroke="black" points="913,-146.5 913,-182.5 "/>
<text text-anchor="middle" x="966.5" y="-160.8" font-family="Times,serif" font-size="14.00">Value: NULL</text>
</g>
<!-- node28&#45;&gt;node29 -->
<g id="edge18" class="edge">
<title>node28&#45;&gt;node29</title>
<path fill="none" stroke="green" d="M922,-219.31C922,-211.29 922,-201.55 922,-192.57"/>
<polygon fill="green" stroke="green" points="925.5,-192.53 922,-182.53 918.5,-192.53 925.5,-192.53"/>
</g>
<!-- node30 -->
<g id="node20" class="node">
<title>node30</title>
<polygon fill="springGreen" stroke="black" points="841,-73.5 841,-109.5 1003,-109.5 1003,-73.5 841,-73.5"/>
<text text-anchor="middle" x="885.5" y="-87.8" font-family="Times,serif" font-size="14.00">Type: VAR</text>
<polyline fill="none" stroke="black" points="930,-73.5 930,-109.5 "/>
<text text-anchor="middle" x="966.5" y="-87.8" font-family="Times,serif" font-size="14.00">Value: a</text>
</g>
<!-- node29&#45;&gt;node30 -->
<g id="edge19" class="edge">
<title>node29&#45;&gt;node30</title>
<path fill="none" stroke="red" d="M922,-146.31C922,-138.29 922,-128.55 922,-119.57"/>
<polygon fill="red" stroke="red" points="925.5,-119.53 922,-109.53 918.5,-119.53 925.5,-119.53"/>
</g>
<!-- node35 -->
<g id="node22" class="node">
<title>node35</title>
<polygon fill="cornflowerblue" stroke="black" points="1059,-146.5 1059,-182.5 1257,-182.5 1257,-146.5 1059,-146.5"/>
<text text-anchor="middle" x="1108" y="-160.8" font-family="Times,serif" font-size="14.00">Type: CALL</text>
<polyline fill="none" stroke="black" points="1157,-146.5 1157,-182.5 "/>
<text text-anchor="middle" x="1207" y="-160.8" font-family="Times,serif" font-size="14.00">Value: print</text>
</g>
<!-- node34&#45;&gt;node35 -->
<g id="edge21" class="edge">
<title>node34&#45;&gt;node35</title>
<path fill="none" stroke="red" d="M1174.67,-219.31C1172.16,-211.2 1169.1,-201.34 1166.3,-192.28"/>
<polygon fill="red" stroke="red" points="1169.58,-191.04 1163.28,-182.53 1162.89,-193.12 1169.58,-191.04"/>
</g>
<!-- node41 -->
<g id="node25" class="node">
<title>node41</title>
<polygon fill="cornflowerblue" stroke="black" points="1275.5,-146.5 1275.5,-182.5 1474.5,-182.5 1474.5,-146.5 1275.5,-146.5"/>
<text text-anchor="middle" x="1321.5" y="-160.8" font-family="Times,serif" font-size="14.00">Type: SEQ</text>
<polyline fill="none" stroke="black" points="1367.5,-146.5 1367.5,-182.5 "/>
<text text-anchor="middle" x="1421" y="-160.8" font-family="Times,serif" font-size="14.00">Value: NULL</text>
</g>
<!-- node34&#45;&gt;node41 -->
<g id="edge24" class="edge">
<title>node34&#45;&gt;node41</title>
<path fill="none" stroke="green" d="M1226.71,-219.49C1254.24,-209.47 1289.28,-196.71 1318.38,-186.12"/>
<polygon fill="green" stroke="green" points="1319.8,-189.32 1328,-182.61 1317.4,-182.75 1319.8,-189.32"/>
</g>
<!-- node36 -->
<g id="node23" class="node">
<title>node36</title>
<polygon fill="cornflowerblue" stroke="black" points="1060,-73.5 1060,-109.5 1256,-109.5 1256,-73.5 1060,-73.5"/>
<text text-anchor="middle" x="1104.5" y="-87.8" font-family="Times,serif" font-size="14.00">Type: PAR</text>
<polyline fill="none" stroke="black" points="1149,-73.5 1149,-109.5 "/>
<text text-anchor="middle" x="1202.5" y="-87.8" font-family="Times,serif" font-size="14.00">Value: NULL</text>
</g>
<!-- node35&#45;&gt;node36 -->
<g id="edge22" class="edge">
<title>node35&#45;&gt;node36</title>
<path fill="none" stroke="green" d="M1158,-146.31C1158,-138.29 1158,-128.55 1158,-119.57"/>
<polygon fill="green" stroke="green" points="1161.5,-119.53 1158,-109.53 1154.5,-119.53 1161.5,-119.53"/>
</g>
<!-- node37 -->
<g id="node24" class="node">
<title>node37</title>
<polygon fill="springGreen" stroke="black" points="1077,-0.5 1077,-36.5 1239,-36.5 1239,-0.5 1077,-0.5"/>
<text text-anchor="middle" x="1121.5" y="-14.8" font-family="Times,serif" font-size="14.00">Type: VAR</text>
<polyline fill="none" stroke="black" points="1166,-0.5 1166,-36.5 "/>
<text text-anchor="middle" x="1202.5" y="-14.8" font-family="Times,serif" font-size="14.00">Value: a</text>
</g>
<!-- node36&#45;&gt;node37 -->
<g id="edge23" class="edge">
<title>node36&#45;&gt;node37</title>
<path fill="none" stroke="red" d="M1158,-73.31C1158,-65.29 1158,-55.55 1158,-46.57"/>
<polygon fill="red" stroke="red" points="1161.5,-46.53 1158,-36.53 1154.5,-46.53 1161.5,-46.53"/>
</g>
<!-- node42 -->
<g id="node26" class="node">
<title>node42</title>
<polygon fill="cornflowerblue" stroke="black" points="1276.5,-73.5 1276.5,-109.5 1473.5,-109.5 1473.5,-73.5 1276.5,-73.5"/>
<text text-anchor="middle" x="1321.5" y="-87.8" font-family="Times,serif" font-size="14.00">Type: RET</text>
<polyline fill="none" stroke="black" points="1366.5,-73.5 1366.5,-109.5 "/>
<text text-anchor="middle" x="1420" y="-87.8" font-family="Times,serif" font-size="14.00">Value: NULL</text>
</g>
<!-- node41&#45;&gt;node42 -->
<g id="edge25" class="edge">
<title>node41&#45;&gt;node42</title>
<path fill="none" stroke="red" d="M1375,-146.31C1375,-138.29 1375,-128.55 1375,-119.57"/>
<polygon fill="red" stroke="red" points="1378.5,-119.53 1375,-109.53 1371.5,-119.53 1378.5,-119.53"/>
</g>
<!-- node43 -->
<g id="node27" class="node">
<title>node43</title>
<polygon fill="springGreen" stroke="black" points="1266,-0.5 1266,-36.5 1484,-36.5 1484,-0.5 1266,-0.5"/>
<text text-anchor="middle" x="1322.5" y="-14.8" font-family="Times,serif" font-size="14.00">Type: CONST</text>
<polyline fill="none" stroke="black" points="1379,-0.5 1379,-36.5 "/>
<text text-anchor="middle" x="1431.5" y="-14.8" font-family="Times,serif" font-size="14.00">Value: 1.000</text>
</g>
<!-- node42&#45;&gt;node43 -->
<g id="edge26" class="edge">
<title>node42&#45;&gt;node43</title>
<path fill="none" stroke="green" d="M1375,-73.31C1375,-65.29 1375,-55.55 1375,-46.57"/>
<polygon fill="green" stroke="green" points="1378.5,-46.53 1375,-36.53 1371.5,-46.53 1378.5,-46.53"/>
</g>
</g>
</svg>
